<svg width="800" height="800" viewBox="0 0 32 32" xmlns="http://www.w3.org/2000/svg"><g fill="#ff0318"><path d="M11.87 30.782c2.827-.004 6.12-.016 8.583-.022 6.399-4.805.449-11.341-4.919-10.395 4.74 3.583.616 9.454-3.664 10.417zM23.245 6.173v.136c4.927 11.598-8.514 11.801-7.44.717-2.601 6.269-8.292-.134-5.683-5.695-11.473 6.657 3.244 14.186-.636 20.745-2.189 3.7-7.109-1.768-6.756-7.912-3.107 7.886-.845 13.525 3.212 16.583.107.026 1.583.036 3.653.037a4.01 4.01 0 0 1-.622-.214c-1.335-.586-2.12-3.808 1.822-5.503-.787 4.838 8.606.838 1.458-10.24 5.318 1.677 8.675 3.745 11.078 7.434 1.694-1.511 2.91-4.074 3.28-6.596 2.713 4.869 1.466 12.355-4.95 15.092 1.419-.003 2.37-.002 2.471.005 9.657-2.17 8.694-15.283-.886-24.589z"/></g></svg>