<svg width="800" height="800" viewBox="0 0 16 16" fill="none" xmlns="http://www.w3.org/2000/svg"><path d="M4.727 1.588 4 .818l-.727.77A4.484 4.484 0 0 1 .015 3H0v4.5c1.29 0 2.451-.541 3.273-1.412L4 5.318l.727.77A4.485 4.485 0 0 0 8 7.5c1.29 0 2.451-.541 3.273-1.412l.727-.77.727.77A4.485 4.485 0 0 0 16 7.5V3h-.015a4.485 4.485 0 0 1-3.258-1.412L12 .818l-.727.77A4.485 4.485 0 0 1 8.015 3h-.03a4.484 4.484 0 0 1-3.258-1.412Z" fill="#095ef0"/><path fill-rule="evenodd" clip-rule="evenodd" d="M16 9.5a6.475 6.475 0 0 1-4-1.376A6.475 6.475 0 0 1 8 9.5a6.475 6.475 0 0 1-4-1.376A6.475 6.475 0 0 1 0 9.5V14a6.475 6.475 0 0 0 4-1.376A6.475 6.475 0 0 0 8 14a6.475 6.475 0 0 0 4-1.376A6.475 6.475 0 0 0 16 14V9.5ZM8 12h-.015.03H8Z" fill="#095ef0"/></svg>